<svg xmlns="http://www.w3.org/2000/svg" xmlns:xlink="http://www.w3.org/1999/xlink" width="500" zoomAndPan="magnify" viewBox="0 0 375 374.999991" height="500" preserveAspectRatio="xMidYMid meet" version="1.0"><defs><g/><clipPath id="4136b631e1"><path d="M 108 66.640625 L 145.972656 66.640625 L 145.972656 103 L 108 103 Z M 108 66.640625 " clip-rule="nonzero"/></clipPath></defs><g clip-path="url(#4136b631e1)"><path fill="#ffffff" d="M 133.792969 66.675781 C 133.714844 66.675781 133.636719 66.679688 133.554688 66.6875 C 130.359375 67.238281 128.605469 70.617188 128.351562 73.59375 C 127.980469 76.296875 129.167969 79.769531 132.136719 80.375 C 132.566406 80.457031 133.015625 80.417969 133.433594 80.304688 C 137.007812 79.105469 138.605469 74.875 138.089844 71.371094 C 137.941406 69.105469 136.234375 66.644531 133.792969 66.675781 Z M 120.253906 66.820312 C 118.269531 66.871094 116.722656 68.882812 116.40625 70.777344 C 115.742188 74.527344 117.449219 79.1875 121.355469 80.375 C 121.722656 80.453125 122.101562 80.464844 122.472656 80.40625 C 125.113281 79.964844 126.230469 77.003906 126.121094 74.613281 C 126.042969 71.460938 124.402344 67.8125 121.128906 66.925781 C 120.828125 66.847656 120.539062 66.8125 120.253906 66.820312 Z M 142.449219 77.476562 C 139.011719 77.679688 136.65625 81.109375 136.320312 84.308594 C 135.867188 86.617188 137.097656 89.703125 139.730469 89.890625 C 143.402344 89.84375 145.910156 85.917969 146.011719 82.542969 C 146.246094 80.308594 144.929688 77.597656 142.449219 77.476562 Z M 112.378906 78.234375 C 110.917969 78.222656 109.480469 79.097656 109 80.582031 C 107.726562 84.558594 110.285156 89.59375 114.496094 90.425781 C 116.253906 90.726562 117.796875 89.378906 118.230469 87.753906 C 119.15625 84.285156 117.257812 80.253906 114.050781 78.675781 C 113.527344 78.382812 112.949219 78.242188 112.378906 78.234375 Z M 127.777344 85.363281 C 124.914062 85.367188 122.003906 86.820312 120.148438 88.988281 C 118.144531 91.507812 116.503906 94.445312 115.859375 97.628906 C 115.082031 99.921875 116.847656 102.558594 119.296875 102.574219 C 122.246094 102.65625 124.777344 100.632812 127.710938 100.480469 C 130.195312 100.101562 132.421875 101.394531 134.65625 102.242188 C 136.5625 103.058594 139.191406 102.746094 140.164062 100.695312 C 140.925781 98.609375 139.800781 96.382812 138.871094 94.527344 C 136.96875 91.519531 134.933594 88.355469 131.816406 86.476562 C 130.566406 85.703125 129.179688 85.359375 127.777344 85.363281 Z M 127.777344 85.363281 " fill-opacity="1" fill-rule="nonzero"/></g><g fill="#c15b75" fill-opacity="1"><g transform="translate(155.47753, 98.861108)"><g><path d="M 6.804688 1.257812 C 11.207031 1.257812 14.355469 -1.949219 14.355469 -6.414062 C 14.355469 -10.191406 10.550781 -12.828125 10.640625 -15.496094 C 10.640625 -16.992188 11.507812 -17.59375 12.496094 -17.59375 C 14.207031 -17.59375 14.027344 -15.464844 13.457031 -14.746094 C 13.039062 -14.207031 14.355469 -13.21875 14.714844 -13.726562 C 16.332031 -14.566406 17.382812 -16.242188 17.382812 -18.042969 C 17.382812 -20.199219 16.035156 -22.296875 12.527344 -22.296875 C 8.542969 -22.296875 6.742188 -19.660156 6.742188 -16.902344 C 6.742188 -13.277344 9.769531 -11.058594 9.769531 -8.75 C 9.769531 -7.28125 8.75 -6.265625 7.3125 -6.265625 C 5.753906 -6.265625 4.824219 -7.28125 4.824219 -8.902344 C 4.824219 -10.550781 5.875 -10.609375 5.875 -11.300781 C 5.875 -11.75 5.394531 -12.046875 4.644531 -12.046875 C 2.878906 -12.046875 -0.121094 -10.488281 -0.121094 -5.785156 C -0.121094 -1.167969 2.878906 1.257812 6.804688 1.257812 Z M 6.804688 1.257812 "/></g></g></g><g fill="#c15b75" fill-opacity="1"><g transform="translate(171.001771, 98.861108)"><g><path d="M 3.027344 0 C 7.34375 0 9.652344 -5.753906 10.550781 -7.460938 C 10.847656 -8.03125 9.679688 -8.902344 9.199219 -8.210938 C 8.601562 -7.28125 7.640625 -6.714844 6.445312 -6.714844 C 4.675781 -6.714844 3.746094 -8.03125 4.375 -10.128906 C 4.945312 -12.136719 5.125 -12.199219 7.914062 -12.199219 C 9.109375 -12.199219 9.46875 -14.957031 8.660156 -14.957031 L 7.101562 -14.957031 C 6.535156 -14.957031 6.625 -15.464844 7.074219 -16.421875 C 8.003906 -18.3125 7.613281 -19.242188 6.503906 -19.242188 C 5.753906 -19.242188 5.09375 -18.972656 4.375 -17.234375 C 3.957031 -16.152344 2.996094 -14.957031 1.257812 -14.957031 C 0.570312 -14.957031 0.597656 -12.648438 2.335938 -12.648438 C 1.589844 -10.578125 0.929688 -8.8125 0.417969 -7.3125 C -0.929688 -3.476562 -0.328125 0 3.027344 0 Z M 3.027344 0 "/></g></g></g><g fill="#c15b75" fill-opacity="1"><g transform="translate(179.513131, 98.861108)"><g><path d="M 12.527344 -8.210938 C 11.929688 -7.3125 11.359375 -6.683594 10.460938 -6.683594 C 9.109375 -6.683594 8.601562 -7.3125 8.601562 -8.152344 C 8.601562 -10.011719 9.890625 -11.269531 9.890625 -12.976562 C 9.890625 -14.59375 7.011719 -16.515625 4.195312 -16.515625 C 2.578125 -16.515625 1.527344 -15.046875 1.527344 -13.816406 C 1.527344 -12.738281 1.917969 -12.347656 2.515625 -12.136719 C 2.007812 -10.757812 1.257812 -9.019531 0.6875 -8.210938 C 0.300781 -7.640625 1.648438 -6.683594 2.039062 -7.460938 C 2.515625 -8.453125 3.507812 -10.488281 4.046875 -11.6875 C 5.246094 -11.238281 5.632812 -10.488281 5.632812 -10.191406 C 5.632812 -8.75 3.535156 -5.933594 3.535156 -3.148438 C 3.535156 -1.617188 4.375 0 6.832031 0 C 10.878906 0 12.917969 -5.8125 13.875 -7.460938 C 14.207031 -8.03125 13.007812 -8.929688 12.527344 -8.210938 Z M 12.527344 -8.210938 "/></g></g></g><g fill="#c15b75" fill-opacity="1"><g transform="translate(191.351115, 98.861108)"><g><path d="M 5.632812 0 C 9.109375 0 12.289062 -2.578125 14.925781 -7.460938 C 15.253906 -8.03125 14.054688 -8.929688 13.578125 -8.210938 C 12.226562 -6.144531 9.800781 -5.09375 7.761719 -5.09375 C 6.054688 -5.09375 4.644531 -5.632812 4.644531 -6.683594 C 4.644531 -7.074219 4.945312 -7.164062 5.15625 -7.042969 C 5.84375 -6.652344 6.652344 -6.5625 7.492188 -6.5625 C 10.429688 -6.5625 12.316406 -9.019531 12.316406 -11.207031 C 12.316406 -13.1875 11.089844 -14.984375 8.300781 -14.984375 C -0.300781 -14.984375 -2.789062 0 5.632812 0 Z M 6.714844 -8.8125 C 5.753906 -8.8125 5.304688 -9.378906 5.304688 -10.039062 C 5.304688 -10.847656 6.023438 -11.71875 7.191406 -11.71875 C 8.121094 -11.71875 8.570312 -11.148438 8.570312 -10.488281 C 8.570312 -9.742188 7.882812 -8.8125 6.714844 -8.8125 Z M 6.714844 -8.8125 "/></g></g></g><g fill="#c15b75" fill-opacity="1"><g transform="translate(204.238033, 98.861108)"><g><path d="M 5.632812 0 C 9.109375 0 12.289062 -2.578125 14.925781 -7.460938 C 15.253906 -8.03125 14.054688 -8.929688 13.578125 -8.210938 C 12.226562 -6.144531 9.800781 -5.09375 7.761719 -5.09375 C 6.054688 -5.09375 4.644531 -5.632812 4.644531 -6.683594 C 4.644531 -7.074219 4.945312 -7.164062 5.15625 -7.042969 C 5.84375 -6.652344 6.652344 -6.5625 7.492188 -6.5625 C 10.429688 -6.5625 12.316406 -9.019531 12.316406 -11.207031 C 12.316406 -13.1875 11.089844 -14.984375 8.300781 -14.984375 C -0.300781 -14.984375 -2.789062 0 5.632812 0 Z M 6.714844 -8.8125 C 5.753906 -8.8125 5.304688 -9.378906 5.304688 -10.039062 C 5.304688 -10.847656 6.023438 -11.71875 7.191406 -11.71875 C 8.121094 -11.71875 8.570312 -11.148438 8.570312 -10.488281 C 8.570312 -9.742188 7.882812 -8.8125 6.714844 -8.8125 Z M 6.714844 -8.8125 "/></g></g></g><g fill="#c15b75" fill-opacity="1"><g transform="translate(217.124951, 98.861108)"><g><path d="M 3.027344 0 C 7.34375 0 9.652344 -5.753906 10.550781 -7.460938 C 10.847656 -8.03125 9.679688 -8.902344 9.199219 -8.210938 C 8.601562 -7.28125 7.640625 -6.714844 6.445312 -6.714844 C 4.675781 -6.714844 3.746094 -8.03125 4.375 -10.128906 C 4.945312 -12.136719 5.125 -12.199219 7.914062 -12.199219 C 9.109375 -12.199219 9.46875 -14.957031 8.660156 -14.957031 L 7.101562 -14.957031 C 6.535156 -14.957031 6.625 -15.464844 7.074219 -16.421875 C 8.003906 -18.3125 7.613281 -19.242188 6.503906 -19.242188 C 5.753906 -19.242188 5.09375 -18.972656 4.375 -17.234375 C 3.957031 -16.152344 2.996094 -14.957031 1.257812 -14.957031 C 0.570312 -14.957031 0.597656 -12.648438 2.335938 -12.648438 C 1.589844 -10.578125 0.929688 -8.8125 0.417969 -7.3125 C -0.929688 -3.476562 -0.328125 0 3.027344 0 Z M 3.027344 0 "/></g></g></g><g fill="#c15b75" fill-opacity="1"><g transform="translate(225.636314, 98.861108)"><g/></g></g><g fill="#c15b75" fill-opacity="1"><g transform="translate(236.42536, 98.861108)"><g><path d="M 15.316406 -8.210938 C 14.59375 -7.164062 13.785156 -6.742188 12.917969 -6.742188 C 13.277344 -7.914062 13.488281 -9.140625 13.488281 -10.429688 C 13.488281 -13.246094 11.929688 -14.984375 9.5625 -14.984375 C 8.632812 -14.984375 7.671875 -14.804688 6.625 -13.785156 C 6.144531 -13.308594 5.574219 -13.515625 5.664062 -13.964844 C 5.753906 -14.503906 5.515625 -14.984375 4.464844 -14.984375 C 2.9375 -14.984375 2.636719 -13.9375 0.6875 -8.210938 C 0.269531 -7.011719 -0.148438 -5.875 -0.539062 -4.824219 C -2.066406 -0.898438 -3.445312 2.097656 -3.445312 3.925781 C -3.445312 5.246094 -2.847656 5.992188 -1.347656 5.992188 C 0.777344 5.992188 1.589844 1.019531 2.488281 -3.355469 C 2.636719 -4.105469 3.445312 -4.046875 3.328125 -3.355469 C 2.9375 -0.960938 4.253906 0 5.964844 0 C 7.882812 0 9.832031 -1.320312 11.238281 -3.355469 L 11.417969 -3.355469 C 14.324219 -3.355469 15.792969 -5.632812 16.664062 -7.460938 C 16.992188 -8.152344 15.675781 -8.722656 15.316406 -8.210938 Z M 6.535156 -6.203125 C 5.394531 -6.203125 4.976562 -6.953125 4.976562 -7.824219 C 4.976562 -9.140625 5.964844 -10.609375 7.433594 -10.609375 C 8.601562 -10.609375 9.082031 -9.890625 9.082031 -9.019531 C 9.082031 -7.761719 8.03125 -6.203125 6.535156 -6.203125 Z M 6.535156 -6.203125 "/></g></g></g><g fill="#c15b75" fill-opacity="1"><g transform="translate(251.050518, 98.861108)"><g><path d="M 3.175781 0 C 5.304688 0 7.101562 -1.949219 8.300781 -4.375 L 8.421875 -4.375 C 8.0625 -1.886719 8.929688 0 11 0 C 14.324219 0 15.972656 -4.675781 17.441406 -7.460938 C 17.742188 -8.03125 16.542969 -8.929688 16.09375 -8.210938 C 15.496094 -7.253906 14.746094 -6.683594 13.726562 -6.683594 C 12.40625 -6.683594 12.078125 -7.882812 13.097656 -10.070312 C 13.757812 -11.808594 14.535156 -12.738281 14.535156 -13.875 C 14.535156 -14.535156 14.265625 -14.984375 13.488281 -14.984375 C 12.078125 -14.984375 11.867188 -13.847656 10.878906 -13.847656 C 10.101562 -13.847656 10.21875 -14.984375 7.824219 -14.984375 C 2.667969 -14.984375 0.0898438 -8.691406 0.0898438 -4.527344 C 0.0898438 -1.859375 1.140625 0 3.175781 0 Z M 6.175781 -6.203125 C 5.246094 -6.203125 4.675781 -6.804688 4.675781 -7.824219 C 4.675781 -9.140625 5.664062 -10.609375 7.222656 -10.609375 C 8.183594 -10.609375 8.78125 -10.011719 8.78125 -9.019531 C 8.78125 -7.761719 7.730469 -6.203125 6.175781 -6.203125 Z M 6.175781 -6.203125 "/></g></g></g><g fill="#c15b75" fill-opacity="1"><g transform="translate(266.454878, 98.861108)"><g><path d="M 20.949219 -8.210938 C 20.230469 -7.164062 19.421875 -6.742188 18.550781 -6.742188 C 18.371094 -6.742188 18.222656 -6.742188 18.042969 -6.773438 C 20.5 -11.570312 20.828125 -15.046875 18.492188 -15.046875 C 16.421875 -15.046875 15.496094 -12.796875 15.496094 -10.160156 C 15.496094 -9.230469 15.613281 -8.363281 15.792969 -7.460938 C 15.226562 -6.714844 14.476562 -6.203125 13.398438 -6.203125 C 12.316406 -6.203125 11.777344 -6.921875 11.777344 -8.0625 C 11.777344 -9.5625 13.398438 -11.507812 13.398438 -12.945312 C 13.398438 -14.265625 12.828125 -14.984375 11.507812 -14.984375 C 10.160156 -14.984375 9.351562 -14.59375 8.8125 -12.765625 C 8.363281 -11.207031 8.691406 -10.191406 8.363281 -8.75 C 8.0625 -7.460938 7.3125 -6.203125 5.84375 -6.203125 C 4.765625 -6.203125 4.226562 -6.921875 4.226562 -8.0625 C 4.226562 -9.832031 5.574219 -12.109375 5.574219 -13.785156 C 5.574219 -14.65625 5.246094 -14.984375 4.644531 -14.984375 C 2.996094 -14.984375 1.378906 -11.359375 0.628906 -8.210938 C -0.300781 -4.496094 0.449219 -0.03125 3.65625 -0.03125 C 5.304688 -0.03125 7.460938 -1.230469 9.050781 -5.273438 C 8.691406 -1.078125 9.949219 -0.03125 11.207031 -0.03125 C 12.945312 -0.03125 14.65625 -1.527344 16.125 -3.535156 C 16.421875 -3.417969 16.722656 -3.355469 17.054688 -3.355469 C 19.960938 -3.355469 21.429688 -5.632812 22.296875 -7.460938 C 22.628906 -8.152344 21.308594 -8.722656 20.949219 -8.210938 Z M 20.949219 -8.210938 "/></g></g></g><g fill="#c15b75" fill-opacity="1"><g transform="translate(286.714322, 98.861108)"><g><path d="M 12.316406 -8.210938 C 11.71875 -7.3125 11.089844 -6.652344 10.191406 -6.625 C 9.800781 -8.480469 8.210938 -10.878906 8.210938 -11.449219 C 8.210938 -12.648438 10.398438 -12.738281 10.371094 -13.695312 C 10.398438 -14.65625 9.5 -15.734375 7.640625 -15.734375 C 5.066406 -15.734375 2.9375 -11.269531 0.808594 -8.390625 L 0.6875 -8.210938 C -1.109375 -5.214844 -0.480469 -0.03125 4.796875 -0.03125 C 10.371094 -0.03125 12.828125 -5.722656 13.667969 -7.460938 C 13.9375 -8.03125 12.796875 -8.929688 12.316406 -8.210938 Z M 3.714844 -6.203125 C 2.726562 -6.203125 2.039062 -6.742188 2.039062 -7.460938 C 2.726562 -8.332031 3.65625 -9.5625 4.40625 -10.667969 C 4.675781 -11.058594 4.914062 -11.058594 5.125 -10.667969 C 5.542969 -9.859375 5.785156 -9.109375 5.785156 -8.390625 C 5.785156 -7.164062 5.035156 -6.203125 3.714844 -6.203125 Z M 3.714844 -6.203125 "/></g></g></g><g fill="#ffffff" fill-opacity="1"><g transform="translate(154.417878, 97.801448)"><g><path d="M 6.804688 1.257812 C 11.207031 1.257812 14.355469 -1.949219 14.355469 -6.414062 C 14.355469 -10.191406 10.550781 -12.828125 10.640625 -15.496094 C 10.640625 -16.992188 11.507812 -17.59375 12.496094 -17.59375 C 14.207031 -17.59375 14.027344 -15.464844 13.457031 -14.746094 C 13.039062 -14.207031 14.355469 -13.21875 14.714844 -13.726562 C 16.332031 -14.566406 17.382812 -16.242188 17.382812 -18.042969 C 17.382812 -20.199219 16.035156 -22.296875 12.527344 -22.296875 C 8.542969 -22.296875 6.742188 -19.660156 6.742188 -16.902344 C 6.742188 -13.277344 9.769531 -11.058594 9.769531 -8.75 C 9.769531 -7.28125 8.75 -6.265625 7.3125 -6.265625 C 5.753906 -6.265625 4.824219 -7.28125 4.824219 -8.902344 C 4.824219 -10.550781 5.875 -10.609375 5.875 -11.300781 C 5.875 -11.75 5.394531 -12.046875 4.644531 -12.046875 C 2.878906 -12.046875 -0.121094 -10.488281 -0.121094 -5.785156 C -0.121094 -1.167969 2.878906 1.257812 6.804688 1.257812 Z M 6.804688 1.257812 "/></g></g></g><g fill="#ffffff" fill-opacity="1"><g transform="translate(169.942119, 97.801448)"><g><path d="M 3.027344 0 C 7.34375 0 9.652344 -5.753906 10.550781 -7.460938 C 10.847656 -8.03125 9.679688 -8.902344 9.199219 -8.210938 C 8.601562 -7.28125 7.640625 -6.714844 6.445312 -6.714844 C 4.675781 -6.714844 3.746094 -8.03125 4.375 -10.128906 C 4.945312 -12.136719 5.125 -12.199219 7.914062 -12.199219 C 9.109375 -12.199219 9.46875 -14.957031 8.660156 -14.957031 L 7.101562 -14.957031 C 6.535156 -14.957031 6.625 -15.464844 7.074219 -16.421875 C 8.003906 -18.3125 7.613281 -19.242188 6.503906 -19.242188 C 5.753906 -19.242188 5.09375 -18.972656 4.375 -17.234375 C 3.957031 -16.152344 2.996094 -14.957031 1.257812 -14.957031 C 0.570312 -14.957031 0.597656 -12.648438 2.335938 -12.648438 C 1.589844 -10.578125 0.929688 -8.8125 0.417969 -7.3125 C -0.929688 -3.476562 -0.328125 0 3.027344 0 Z M 3.027344 0 "/></g></g></g><g fill="#ffffff" fill-opacity="1"><g transform="translate(178.453478, 97.801448)"><g><path d="M 12.527344 -8.210938 C 11.929688 -7.3125 11.359375 -6.683594 10.460938 -6.683594 C 9.109375 -6.683594 8.601562 -7.3125 8.601562 -8.152344 C 8.601562 -10.011719 9.890625 -11.269531 9.890625 -12.976562 C 9.890625 -14.59375 7.011719 -16.515625 4.195312 -16.515625 C 2.578125 -16.515625 1.527344 -15.046875 1.527344 -13.816406 C 1.527344 -12.738281 1.917969 -12.347656 2.515625 -12.136719 C 2.007812 -10.757812 1.257812 -9.019531 0.6875 -8.210938 C 0.300781 -7.640625 1.648438 -6.683594 2.039062 -7.460938 C 2.515625 -8.453125 3.507812 -10.488281 4.046875 -11.6875 C 5.246094 -11.238281 5.632812 -10.488281 5.632812 -10.191406 C 5.632812 -8.75 3.535156 -5.933594 3.535156 -3.148438 C 3.535156 -1.617188 4.375 0 6.832031 0 C 10.878906 0 12.917969 -5.8125 13.875 -7.460938 C 14.207031 -8.03125 13.007812 -8.929688 12.527344 -8.210938 Z M 12.527344 -8.210938 "/></g></g></g><g fill="#ffffff" fill-opacity="1"><g transform="translate(190.291462, 97.801448)"><g><path d="M 5.632812 0 C 9.109375 0 12.289062 -2.578125 14.925781 -7.460938 C 15.253906 -8.03125 14.054688 -8.929688 13.578125 -8.210938 C 12.226562 -6.144531 9.800781 -5.09375 7.761719 -5.09375 C 6.054688 -5.09375 4.644531 -5.632812 4.644531 -6.683594 C 4.644531 -7.074219 4.945312 -7.164062 5.15625 -7.042969 C 5.84375 -6.652344 6.652344 -6.5625 7.492188 -6.5625 C 10.429688 -6.5625 12.316406 -9.019531 12.316406 -11.207031 C 12.316406 -13.1875 11.089844 -14.984375 8.300781 -14.984375 C -0.300781 -14.984375 -2.789062 0 5.632812 0 Z M 6.714844 -8.8125 C 5.753906 -8.8125 5.304688 -9.378906 5.304688 -10.039062 C 5.304688 -10.847656 6.023438 -11.71875 7.191406 -11.71875 C 8.121094 -11.71875 8.570312 -11.148438 8.570312 -10.488281 C 8.570312 -9.742188 7.882812 -8.8125 6.714844 -8.8125 Z M 6.714844 -8.8125 "/></g></g></g><g fill="#ffffff" fill-opacity="1"><g transform="translate(203.17838, 97.801448)"><g><path d="M 5.632812 0 C 9.109375 0 12.289062 -2.578125 14.925781 -7.460938 C 15.253906 -8.03125 14.054688 -8.929688 13.578125 -8.210938 C 12.226562 -6.144531 9.800781 -5.09375 7.761719 -5.09375 C 6.054688 -5.09375 4.644531 -5.632812 4.644531 -6.683594 C 4.644531 -7.074219 4.945312 -7.164062 5.15625 -7.042969 C 5.84375 -6.652344 6.652344 -6.5625 7.492188 -6.5625 C 10.429688 -6.5625 12.316406 -9.019531 12.316406 -11.207031 C 12.316406 -13.1875 11.089844 -14.984375 8.300781 -14.984375 C -0.300781 -14.984375 -2.789062 0 5.632812 0 Z M 6.714844 -8.8125 C 5.753906 -8.8125 5.304688 -9.378906 5.304688 -10.039062 C 5.304688 -10.847656 6.023438 -11.71875 7.191406 -11.71875 C 8.121094 -11.71875 8.570312 -11.148438 8.570312 -10.488281 C 8.570312 -9.742188 7.882812 -8.8125 6.714844 -8.8125 Z M 6.714844 -8.8125 "/></g></g></g><g fill="#ffffff" fill-opacity="1"><g transform="translate(216.065299, 97.801448)"><g><path d="M 3.027344 0 C 7.34375 0 9.652344 -5.753906 10.550781 -7.460938 C 10.847656 -8.03125 9.679688 -8.902344 9.199219 -8.210938 C 8.601562 -7.28125 7.640625 -6.714844 6.445312 -6.714844 C 4.675781 -6.714844 3.746094 -8.03125 4.375 -10.128906 C 4.945312 -12.136719 5.125 -12.199219 7.914062 -12.199219 C 9.109375 -12.199219 9.46875 -14.957031 8.660156 -14.957031 L 7.101562 -14.957031 C 6.535156 -14.957031 6.625 -15.464844 7.074219 -16.421875 C 8.003906 -18.3125 7.613281 -19.242188 6.503906 -19.242188 C 5.753906 -19.242188 5.09375 -18.972656 4.375 -17.234375 C 3.957031 -16.152344 2.996094 -14.957031 1.257812 -14.957031 C 0.570312 -14.957031 0.597656 -12.648438 2.335938 -12.648438 C 1.589844 -10.578125 0.929688 -8.8125 0.417969 -7.3125 C -0.929688 -3.476562 -0.328125 0 3.027344 0 Z M 3.027344 0 "/></g></g></g><g fill="#ffffff" fill-opacity="1"><g transform="translate(224.576662, 97.801448)"><g/></g></g><g fill="#ffffff" fill-opacity="1"><g transform="translate(235.365707, 97.801448)"><g><path d="M 15.316406 -8.210938 C 14.59375 -7.164062 13.785156 -6.742188 12.917969 -6.742188 C 13.277344 -7.914062 13.488281 -9.140625 13.488281 -10.429688 C 13.488281 -13.246094 11.929688 -14.984375 9.5625 -14.984375 C 8.632812 -14.984375 7.671875 -14.804688 6.625 -13.785156 C 6.144531 -13.308594 5.574219 -13.515625 5.664062 -13.964844 C 5.753906 -14.503906 5.515625 -14.984375 4.464844 -14.984375 C 2.9375 -14.984375 2.636719 -13.9375 0.6875 -8.210938 C 0.269531 -7.011719 -0.148438 -5.875 -0.539062 -4.824219 C -2.066406 -0.898438 -3.445312 2.097656 -3.445312 3.925781 C -3.445312 5.246094 -2.847656 5.992188 -1.347656 5.992188 C 0.777344 5.992188 1.589844 1.019531 2.488281 -3.355469 C 2.636719 -4.105469 3.445312 -4.046875 3.328125 -3.355469 C 2.9375 -0.960938 4.253906 0 5.964844 0 C 7.882812 0 9.832031 -1.320312 11.238281 -3.355469 L 11.417969 -3.355469 C 14.324219 -3.355469 15.792969 -5.632812 16.664062 -7.460938 C 16.992188 -8.152344 15.675781 -8.722656 15.316406 -8.210938 Z M 6.535156 -6.203125 C 5.394531 -6.203125 4.976562 -6.953125 4.976562 -7.824219 C 4.976562 -9.140625 5.964844 -10.609375 7.433594 -10.609375 C 8.601562 -10.609375 9.082031 -9.890625 9.082031 -9.019531 C 9.082031 -7.761719 8.03125 -6.203125 6.535156 -6.203125 Z M 6.535156 -6.203125 "/></g></g></g><g fill="#ffffff" fill-opacity="1"><g transform="translate(249.990866, 97.801448)"><g><path d="M 3.175781 0 C 5.304688 0 7.101562 -1.949219 8.300781 -4.375 L 8.421875 -4.375 C 8.0625 -1.886719 8.929688 0 11 0 C 14.324219 0 15.972656 -4.675781 17.441406 -7.460938 C 17.742188 -8.03125 16.542969 -8.929688 16.09375 -8.210938 C 15.496094 -7.253906 14.746094 -6.683594 13.726562 -6.683594 C 12.40625 -6.683594 12.078125 -7.882812 13.097656 -10.070312 C 13.757812 -11.808594 14.535156 -12.738281 14.535156 -13.875 C 14.535156 -14.535156 14.265625 -14.984375 13.488281 -14.984375 C 12.078125 -14.984375 11.867188 -13.847656 10.878906 -13.847656 C 10.101562 -13.847656 10.21875 -14.984375 7.824219 -14.984375 C 2.667969 -14.984375 0.0898438 -8.691406 0.0898438 -4.527344 C 0.0898438 -1.859375 1.140625 0 3.175781 0 Z M 6.175781 -6.203125 C 5.246094 -6.203125 4.675781 -6.804688 4.675781 -7.824219 C 4.675781 -9.140625 5.664062 -10.609375 7.222656 -10.609375 C 8.183594 -10.609375 8.78125 -10.011719 8.78125 -9.019531 C 8.78125 -7.761719 7.730469 -6.203125 6.175781 -6.203125 Z M 6.175781 -6.203125 "/></g></g></g><g fill="#ffffff" fill-opacity="1"><g transform="translate(265.395225, 97.801448)"><g><path d="M 20.949219 -8.210938 C 20.230469 -7.164062 19.421875 -6.742188 18.550781 -6.742188 C 18.371094 -6.742188 18.222656 -6.742188 18.042969 -6.773438 C 20.5 -11.570312 20.828125 -15.046875 18.492188 -15.046875 C 16.421875 -15.046875 15.496094 -12.796875 15.496094 -10.160156 C 15.496094 -9.230469 15.613281 -8.363281 15.792969 -7.460938 C 15.226562 -6.714844 14.476562 -6.203125 13.398438 -6.203125 C 12.316406 -6.203125 11.777344 -6.921875 11.777344 -8.0625 C 11.777344 -9.5625 13.398438 -11.507812 13.398438 -12.945312 C 13.398438 -14.265625 12.828125 -14.984375 11.507812 -14.984375 C 10.160156 -14.984375 9.351562 -14.59375 8.8125 -12.765625 C 8.363281 -11.207031 8.691406 -10.191406 8.363281 -8.75 C 8.0625 -7.460938 7.3125 -6.203125 5.84375 -6.203125 C 4.765625 -6.203125 4.226562 -6.921875 4.226562 -8.0625 C 4.226562 -9.832031 5.574219 -12.109375 5.574219 -13.785156 C 5.574219 -14.65625 5.246094 -14.984375 4.644531 -14.984375 C 2.996094 -14.984375 1.378906 -11.359375 0.628906 -8.210938 C -0.300781 -4.496094 0.449219 -0.03125 3.65625 -0.03125 C 5.304688 -0.03125 7.460938 -1.230469 9.050781 -5.273438 C 8.691406 -1.078125 9.949219 -0.03125 11.207031 -0.03125 C 12.945312 -0.03125 14.65625 -1.527344 16.125 -3.535156 C 16.421875 -3.417969 16.722656 -3.355469 17.054688 -3.355469 C 19.960938 -3.355469 21.429688 -5.632812 22.296875 -7.460938 C 22.628906 -8.152344 21.308594 -8.722656 20.949219 -8.210938 Z M 20.949219 -8.210938 "/></g></g></g><g fill="#ffffff" fill-opacity="1"><g transform="translate(285.654669, 97.801448)"><g><path d="M 12.316406 -8.210938 C 11.71875 -7.3125 11.089844 -6.652344 10.191406 -6.625 C 9.800781 -8.480469 8.210938 -10.878906 8.210938 -11.449219 C 8.210938 -12.648438 10.398438 -12.738281 10.371094 -13.695312 C 10.398438 -14.65625 9.5 -15.734375 7.640625 -15.734375 C 5.066406 -15.734375 2.9375 -11.269531 0.808594 -8.390625 L 0.6875 -8.210938 C -1.109375 -5.214844 -0.480469 -0.03125 4.796875 -0.03125 C 10.371094 -0.03125 12.828125 -5.722656 13.667969 -7.460938 C 13.9375 -8.03125 12.796875 -8.929688 12.316406 -8.210938 Z M 3.714844 -6.203125 C 2.726562 -6.203125 2.039062 -6.742188 2.039062 -7.460938 C 2.726562 -8.332031 3.65625 -9.5625 4.40625 -10.667969 C 4.675781 -11.058594 4.914062 -11.058594 5.125 -10.667969 C 5.542969 -9.859375 5.785156 -9.109375 5.785156 -8.390625 C 5.785156 -7.164062 5.035156 -6.203125 3.714844 -6.203125 Z M 3.714844 -6.203125 "/></g></g></g></svg>